<svg width="20" height="20" viewBox="0 0 20 20" fill="none" xmlns="http://www.w3.org/2000/svg">
<path d="M0 2C0 0.895431 0.895431 0 2 0H18C19.1046 0 20 0.895431 20 2V18C20 19.1046 19.1046 20 18 20H2C0.895431 20 0 19.1046 0 18V2Z" fill="#623EA2"/>
<path d="M6.66666 13.3333L9.88888 16.5556L13.1097 13.3333L9.88888 10.1111L6.66666 13.3333Z" fill="#9B20B7"/>
<path d="M13.1111 13.3333L9.88889 16.5556L13.1111 19.7778V13.3333Z" fill="#E53AFF"/>
<path d="M0 18V2C0 0.895431 0.895429 0 2 0H6.66667V6.66667L13.3333 0H16.6667H17.5V0.5H18.5H19V1L6.66667 13.3333L13.3333 20H6.66667H2C0.89543 20 0 19.1046 0 18Z" fill="#2E1F49"/>
<path d="M19.7778 6.66666L13.1111 13.3333V20H17.7778C18.8824 20 19.7778 19.1046 19.7778 18V6.66666Z" fill="#2EFF6C"/>
<path d="M0.5 2C0.5 1.17157 1.17157 0.5 2 0.5H18C18.8284 0.5 19.5 1.17157 19.5 2V18C19.5 18.8284 18.8284 19.5 18 19.5H2C1.17157 19.5 0.5 18.8284 0.5 18V2Z" stroke="#2E1F49"/>
</svg>
